HIERARCHY
ROOT newVegas:Hips
{
	OFFSET 0.000000 96.479958 0.000000
	CHANNELS 6 Xposition Yposition Zposition Xrotation Yrotation Zrotation
	JOINT newVegas:Pelvis
	{
		OFFSET 0.000000 0.000000 0.000000
		CHANNELS 3 Xrotation Yrotation Zrotation
		JOINT newVegas:LeftUpLeg
		{
			OFFSET 18.735201 -5.666702 -4.541200
			CHANNELS 3 Xrotation Yrotation Zrotation
			JOINT newVegas:LeftLeg
			{
				OFFSET -0.021200 -31.938179 0.493100
				CHANNELS 3 Xrotation Yrotation Zrotation
				JOINT newVegas:LeftFoot
				{
					OFFSET 0.021200 -31.938179 -4.336299
					CHANNELS 3 Xrotation Yrotation Zrotation
					JOINT newVegas:LeftToeBase
					{
						OFFSET 0.943001 -26.722000 15.023500
						CHANNELS 3 Xrotation Yrotation Zrotation
						End Site
						{
							OFFSET 0.000000 30.670183 0.000000
						}
					}
				}
				JOINT newVegas:Left_PantLeg
				{
					OFFSET 0.663870 -9.044666 -1.108900
					CHANNELS 3 Xrotation Yrotation Zrotation
					End Site
					{
						OFFSET 1.415995 20.635357 0.000000
					}
				}
			}
		}
		JOINT newVegas:RightUpLeg
		{
			OFFSET -18.735201 -5.666702 -4.541200
			CHANNELS 3 Xrotation Yrotation Zrotation
			JOINT newVegas:RightLeg
			{
				OFFSET 0.018946 -31.938133 0.493100
				CHANNELS 3 Xrotation Yrotation Zrotation
				JOINT newVegas:RightFoot
				{
					OFFSET -0.018946 -31.938126 -4.336299
					CHANNELS 3 Xrotation Yrotation Zrotation
					JOINT newVegas:RightToeBase
					{
						OFFSET -0.943001 -26.722004 15.023500
						CHANNELS 3 Xrotation Yrotation Zrotation
						End Site
						{
							OFFSET 0.000000 30.670187 0.000000
						}
					}
				}
				JOINT newVegas:Right_PantLeg
				{
					OFFSET -0.661674 -9.044716 -1.108900
					CHANNELS 3 Xrotation Yrotation Zrotation
					End Site
					{
						OFFSET -1.415958 20.635269 0.000000
					}
				}
			}
		}
	}
	JOINT newVegas:Spine
	{
		OFFSET 0.000000 10.199997 -0.299500
		CHANNELS 3 Xrotation Yrotation Zrotation
		JOINT newVegas:Spine1
		{
			OFFSET 0.000000 11.900002 -1.516600
			CHANNELS 3 Xrotation Yrotation Zrotation
			JOINT newVegas:Spine2
			{
				OFFSET 0.000000 13.600006 -2.842500
				CHANNELS 3 Xrotation Yrotation Zrotation
				JOINT newVegas:Neck
				{
					OFFSET 0.000000 9.624100 -2.890100
					CHANNELS 3 Xrotation Yrotation Zrotation
					JOINT newVegas:Head
					{
						OFFSET 0.000000 14.068802 -1.351900
						CHANNELS 3 Xrotation Yrotation Zrotation
						JOINT newVegas:Hair_Back
						{
							OFFSET 0.000000 3.231903 -17.524799
							CHANNELS 3 Xrotation Yrotation Zrotation
							End Site
							{
								OFFSET 0.000000 19.849884 0.000000
							}
						}
						JOINT newVegas:Hair_Front
						{
							OFFSET 0.000000 31.260406 4.573800
							CHANNELS 3 Xrotation Yrotation Zrotation
							JOINT newVegas:Hair_Front1
							{
								OFFSET 0.000000 2.284103 11.993300
								CHANNELS 3 Xrotation Yrotation Zrotation
								JOINT newVegas:Hair_Front2
								{
									OFFSET 0.000000 2.284103 11.993300
									CHANNELS 3 Xrotation Yrotation Zrotation
									End Site
									{
										OFFSET 0.000000 12.208862 0.000000
									}
								}
							}
						}
						JOINT newVegas:Jowel
						{
							OFFSET 0.000000 -7.458206 6.864100
							CHANNELS 3 Xrotation Yrotation Zrotation
							End Site
							{
								OFFSET 0.000000 19.849884 0.000000
							}
						}
					}
				}
				JOINT newVegas:LeftShoulder
				{
					OFFSET 15.263000 10.923401 -0.547700
					CHANNELS 3 Xrotation Yrotation Zrotation
					JOINT newVegas:LeftArm
					{
						OFFSET 25.438599 -2.830597 -13.032500
						CHANNELS 3 Xrotation Yrotation Zrotation
						JOINT newVegas:LeftForeArm
						{
							OFFSET 29.960503 0.000000 0.000000
							CHANNELS 3 Xrotation Yrotation Zrotation
							JOINT newVegas:LeftHand
							{
								OFFSET 27.849251 0.000000 0.000000
								CHANNELS 3 Xrotation Yrotation Zrotation
								JOINT newVegas:LeftHandThumb1
								{
									OFFSET 4.487587 -3.305161 6.305391
									CHANNELS 3 Xrotation Yrotation Zrotation
									JOINT newVegas:LeftHandThumb2
									{
										OFFSET 5.480453 -3.164139 3.164143
										CHANNELS 3 Xrotation Yrotation Zrotation
										JOINT newVegas:LeftHandThumb3
										{
											OFFSET 5.159721 -2.978973 2.978967
											CHANNELS 3 Xrotation Yrotation Zrotation
											End Site
											{
												OFFSET 2.494507 5.926697 1.738678
											}
										}
									}
								}
								JOINT newVegas:LeftHandIndex1
								{
									OFFSET 18.578728 -0.527832 5.208049
									CHANNELS 3 Xrotation Yrotation Zrotation
									JOINT newVegas:LeftHandIndex2
									{
										OFFSET 3.192009 0.000000 0.000000
										CHANNELS 3 Xrotation Yrotation Zrotation
										JOINT newVegas:LeftHandIndex3
										{
											OFFSET 3.835129 0.000000 0.000000
											CHANNELS 3 Xrotation Yrotation Zrotation
											End Site
											{
												OFFSET -0.034599 3.816971 0.371180
											}
										}
									}
								}
								JOINT newVegas:LeftHandMiddle1
								{
									OFFSET 18.476105 0.000000 0.000000
									CHANNELS 3 Xrotation Yrotation Zrotation
									JOINT newVegas:LeftHandMiddle2
									{
										OFFSET 3.324875 0.000000 0.000000
										CHANNELS 3 Xrotation Yrotation Zrotation
										JOINT newVegas:LeftHandMiddle3
										{
											OFFSET 4.596550 0.000000 0.000000
											CHANNELS 3 Xrotation Yrotation Zrotation
											End Site
											{
												OFFSET 0.057701 4.578827 0.399218
											}
										}
									}
								}
								JOINT newVegas:LeftHandRing1
								{
									OFFSET 17.732719 0.121887 -4.201567
									CHANNELS 3 Xrotation Yrotation Zrotation
									JOINT newVegas:LeftHandRing2
									{
										OFFSET 2.733170 0.000000 0.000000
										CHANNELS 3 Xrotation Yrotation Zrotation
										JOINT newVegas:LeftHandRing3
										{
											OFFSET 3.178268 0.000000 0.000000
											CHANNELS 3 Xrotation Yrotation Zrotation
											End Site
											{
												OFFSET 0.119102 3.170624 0.185394
											}
										}
									}
								}
								JOINT newVegas:LeftHandPinky1
								{
									OFFSET 15.989624 -0.606689 -7.535461
									CHANNELS 3 Xrotation Yrotation Zrotation
									JOINT newVegas:LeftHandPinky2
									{
										OFFSET 2.538986 0.000000 0.000000
										CHANNELS 3 Xrotation Yrotation Zrotation
										JOINT newVegas:LeftHandPinky3
										{
											OFFSET 2.593102 0.000000 0.000000
											CHANNELS 3 Xrotation Yrotation Zrotation
											End Site
											{
												OFFSET -0.150902 2.584198 0.152708
											}
										}
									}
								}
							}
							JOINT newVegas:Left_Sleeve
							{
								OFFSET 0.267448 -0.649796 0.577675
								CHANNELS 3 Xrotation Yrotation Zrotation
								End Site
								{
									OFFSET 0.000000 15.991241 0.000000
								}
							}
							JOINT newVegas:Left_CapeC
							{
								OFFSET 15.715958 -8.608795 -6.935905
								CHANNELS 3 Xrotation Yrotation Zrotation
								JOINT newVegas:Left_CapeC1
								{
									OFFSET 0.000000 -8.688499 0.000000
									CHANNELS 3 Xrotation Yrotation Zrotation
									End Site
									{
										OFFSET 0.000000 8.688499 0.000000
									}
								}
							}
						}
						JOINT newVegas:Left_CapeB
						{
							OFFSET 26.118385 -8.608795 -7.079235
							CHANNELS 3 Xrotation Yrotation Zrotation
							JOINT newVegas:Left_CapeB1
							{
								OFFSET 0.000000 -8.688499 0.000000
								CHANNELS 3 Xrotation Yrotation Zrotation
								End Site
								{
									OFFSET 0.000000 8.688499 0.000000
								}
							}
						}
						JOINT newVegas:Left_CapeA
						{
							OFFSET 5.115639 -8.608795 -10.395809
							CHANNELS 3 Xrotation Yrotation Zrotation
							JOINT newVegas:Left_CapeA1
							{
								OFFSET 0.000000 -8.688499 0.000000
								CHANNELS 3 Xrotation Yrotation Zrotation
								End Site
								{
									OFFSET 0.000000 8.688499 0.000000
								}
							}
						}
					}
				}
				JOINT newVegas:RightShoulder
				{
					OFFSET -15.263000 10.923401 -0.547700
					CHANNELS 3 Xrotation Yrotation Zrotation
					JOINT newVegas:RightArm
					{
						OFFSET -25.438599 -2.830597 -13.032500
						CHANNELS 3 Xrotation Yrotation Zrotation
						JOINT newVegas:RightForeArm
						{
							OFFSET -29.960503 0.000000 0.000000
							CHANNELS 3 Xrotation Yrotation Zrotation
							JOINT newVegas:RightHand
							{
								OFFSET -27.849251 0.000000 0.000000
								CHANNELS 3 Xrotation Yrotation Zrotation
								JOINT newVegas:RightHandThumb1
								{
									OFFSET -4.487587 -3.305161 6.305391
									CHANNELS 3 Xrotation Yrotation Zrotation
									JOINT newVegas:RightHandThumb2
									{
										OFFSET -5.480453 -3.164139 3.164143
										CHANNELS 3 Xrotation Yrotation Zrotation
										JOINT newVegas:RightHandThumb3
										{
											OFFSET -5.159721 -2.978973 2.978967
											CHANNELS 3 Xrotation Yrotation Zrotation
											End Site
											{
												OFFSET -2.494507 5.926697 1.738678
											}
										}
									}
								}
								JOINT newVegas:RightHandIndex1
								{
									OFFSET -18.578728 -0.527832 5.208049
									CHANNELS 3 Xrotation Yrotation Zrotation
									JOINT newVegas:RightHandIndex2
									{
										OFFSET -3.192009 0.000000 0.000000
										CHANNELS 3 Xrotation Yrotation Zrotation
										JOINT newVegas:RightHandIndex3
										{
											OFFSET -3.835129 0.000000 0.000000
											CHANNELS 3 Xrotation Yrotation Zrotation
											End Site
											{
												OFFSET 0.034599 3.816971 0.371180
											}
										}
									}
								}
								JOINT newVegas:RightHandMiddle1
								{
									OFFSET -18.476105 0.000000 0.000000
									CHANNELS 3 Xrotation Yrotation Zrotation
									JOINT newVegas:RightHandMiddle2
									{
										OFFSET -3.324875 0.000000 0.000000
										CHANNELS 3 Xrotation Yrotation Zrotation
										JOINT newVegas:RightHandMiddle3
										{
											OFFSET -4.596550 0.000000 0.000000
											CHANNELS 3 Xrotation Yrotation Zrotation
											End Site
											{
												OFFSET -0.057701 4.578827 0.399218
											}
										}
									}
								}
								JOINT newVegas:RightHandRing1
								{
									OFFSET -17.732719 0.121887 -4.201567
									CHANNELS 3 Xrotation Yrotation Zrotation
									JOINT newVegas:RightHandRing2
									{
										OFFSET -2.733170 0.000000 0.000000
										CHANNELS 3 Xrotation Yrotation Zrotation
										JOINT newVegas:RightHandRing3
										{
											OFFSET -3.178268 0.000000 0.000000
											CHANNELS 3 Xrotation Yrotation Zrotation
											End Site
											{
												OFFSET -0.119102 3.170624 0.185394
											}
										}
									}
								}
								JOINT newVegas:RightHandPinky1
								{
									OFFSET -15.989624 -0.606689 -7.535461
									CHANNELS 3 Xrotation Yrotation Zrotation
									JOINT newVegas:RightHandPinky2
									{
										OFFSET -2.538986 0.000000 0.000000
										CHANNELS 3 Xrotation Yrotation Zrotation
										JOINT newVegas:RightHandPinky3
										{
											OFFSET -2.593102 0.000000 0.000000
											CHANNELS 3 Xrotation Yrotation Zrotation
											End Site
											{
												OFFSET 0.150902 2.584198 0.152708
											}
										}
									}
								}
							}
							JOINT newVegas:Right_CapeC
							{
								OFFSET -15.715958 -8.608795 -6.935905
								CHANNELS 3 Xrotation Yrotation Zrotation
								JOINT newVegas:Right_CapeC1
								{
									OFFSET 0.000000 -8.688499 0.000000
									CHANNELS 3 Xrotation Yrotation Zrotation
									End Site
									{
										OFFSET 0.000000 8.688499 0.000000
									}
								}
							}
							JOINT newVegas:Right_Sleeve
							{
								OFFSET -0.267448 -0.649994 0.577675
								CHANNELS 3 Xrotation Yrotation Zrotation
								End Site
								{
									OFFSET 0.000000 15.991302 0.000000
								}
							}
						}
						JOINT newVegas:Right_CapeA
						{
							OFFSET -5.115540 -8.608795 -10.395824
							CHANNELS 3 Xrotation Yrotation Zrotation
							JOINT newVegas:Right_CapeA1
							{
								OFFSET 0.000000 -8.688499 0.000000
								CHANNELS 3 Xrotation Yrotation Zrotation
								End Site
								{
									OFFSET 0.000000 8.688499 0.000000
								}
							}
						}
						JOINT newVegas:Right_CapeB
						{
							OFFSET -26.118187 -8.608795 -7.079266
							CHANNELS 3 Xrotation Yrotation Zrotation
							JOINT newVegas:Right_CapeB1
							{
								OFFSET 0.000000 -8.688499 0.000000
								CHANNELS 3 Xrotation Yrotation Zrotation
								End Site
								{
									OFFSET 0.000000 8.688499 0.000000
								}
							}
						}
					}
				}
				JOINT newVegas:Left_Collar
				{
					OFFSET 18.625099 8.655502 8.828100
					CHANNELS 3 Xrotation Yrotation Zrotation
					JOINT newVegas:Left_Collar1
					{
						OFFSET 14.783401 10.540405 -1.259500
						CHANNELS 3 Xrotation Yrotation Zrotation
						End Site
						{
							OFFSET 0.000000 18.199875 0.000000
						}
					}
				}
				JOINT newVegas:Collar_Back
				{
					OFFSET 0.000000 15.630707 -20.132601
					CHANNELS 3 Xrotation Yrotation Zrotation
					End Site
					{
						OFFSET 0.000000 22.523010 0.000000
					}
				}
				JOINT newVegas:Left_Peck
				{
					OFFSET 17.239599 -5.132599 25.482599
					CHANNELS 3 Xrotation Yrotation Zrotation
					End Site
					{
						OFFSET 0.000000 22.523010 0.000000
					}
				}
				JOINT newVegas:Right_Peck
				{
					OFFSET -17.239599 -5.132202 25.482599
					CHANNELS 3 Xrotation Yrotation Zrotation
					End Site
					{
						OFFSET 0.000000 22.523010 0.000000
					}
				}
				JOINT newVegas:Right_Collar
				{
					OFFSET -18.625099 8.655792 8.828100
					CHANNELS 3 Xrotation Yrotation Zrotation
					JOINT newVegas:Right_Collar1
					{
						OFFSET -14.783401 10.539993 -1.259500
						CHANNELS 3 Xrotation Yrotation Zrotation
						End Site
						{
							OFFSET 0.000000 18.199631 0.000000
						}
					}
				}
			}
		}
		JOINT newVegas:Belly
		{
			OFFSET 0.000000 -6.540398 9.014299
			CHANNELS 3 Xrotation Yrotation Zrotation
			End Site
			{
				OFFSET 0.000000 11.566666 0.000000
			}
		}
	}
	JOINT newVegas:ElvisFacialAnim_Joint
	{
		OFFSET 1.000000 -95.330101 -8.825800
		CHANNELS 3 Xrotation Yrotation Zrotation
		End Site
		{
			OFFSET 0.000000 35.315800 0.000000
		}
	}
}
MOTION
Frames: 4
Frame Time: 0.033333
-2.681003 80.373825 2.552226 -5.398394 -46.091052 -0.138903 -0.000000 -0.000002 -0.000001 -36.910916 3.269441 21.343913 62.508443 -8.152316 4.188274 -22.911224 -6.711826 -18.589811 -0.000000 -0.000001 0.000000 -0.000001 -0.000002 0.000002 -20.977715 -8.981023 -32.624716 63.053656 -6.514473 -7.419372 -31.031964 -9.960268 27.205255 0.000000 0.000000 0.000000 -0.000000 0.000000 0.000003 9.462112 7.035684 -1.694600 2.187715 0.989899 -0.915631 2.202828 0.982776 -0.894152 2.650049 3.452598 -0.064173 2.650053 3.452593 -0.064173 0.000001 -0.000001 -0.000000 2.650046 3.452603 -0.064176 2.650044 3.452615 -0.064175 -0.000000 -0.000001 -0.000000 0.000001 -0.000001 0.000000 1.117178 3.546346 -8.633309 -53.487017 4.935511 -51.502990 0.000107 -106.358067 0.000115 1.988611 -7.706156 -15.869263 -6.141211 -11.690798 -6.761696 9.914098 42.595515 3.409877 0.000001 0.000003 -0.000002 0.255313 3.378225 -45.814361 5.654098 5.847759 -88.067455 0.000002 -0.000001 -0.000001 -0.461471 3.841583 -39.722673 6.450741 5.820340 -95.892864 0.000001 0.000002 0.000000 0.469727 4.966815 -39.799444 8.181046 5.368602 -113.503011 -0.000000 -0.000001 -0.000001 -3.762429 9.063711 -45.253814 5.342518 5.828977 -85.005317 0.000003 -0.000002 -0.000002 -0.000000 0.000001 -0.000000 -0.000000 0.000001 -0.000000 -0.000000 0.000002 -0.000000 0.000000 -0.000003 -0.000001 0.000000 -0.000003 -0.000000 0.000000 -0.000003 -0.000001 0.000000 -0.000004 -0.000001 3.036128 13.027198 -5.371408 -48.713715 27.172837 83.457064 0.000162 105.988266 -0.000184 -8.345371 17.548115 8.775680 -7.341096 13.749665 7.412321 9.855726 -44.489096 -3.903292 0.000001 -0.000002 0.000003 -0.124372 -2.384787 45.108864 4.500582 -4.654550 88.071164 -0.000001 0.000003 -0.000001 -0.761616 -2.932897 39.031061 5.133872 -4.632741 95.881629 -0.000001 -0.000000 -0.000001 0.154765 -4.068800 39.122671 6.509720 -4.273575 113.462843 0.000001 -0.000003 -0.000000 -4.198868 -8.025524 44.637772 4.252888 -4.639615 85.014818 -0.000000 -0.000000 -0.000001 0.000001 0.000001 -0.000000 0.000002 0.000001 -0.000001 0.000001 0.000001 -0.000001 -0.000001 0.000003 0.000002 -0.000001 0.000003 0.000001 -0.000001 0.000003 0.000002 -0.000001 0.000003 0.000002 -0.000000 -0.000001 0.000000 -0.000000 -0.000001 0.000000 -0.000000 -0.000001 0.000000 -0.000000 -0.000001 0.000000 -0.000000 -0.000001 0.000000 -0.000000 -0.000001 0.000000 -0.000000 -0.000001 0.000000 0.000000 0.000004 -0.000000 -0.000000 -0.000002 -0.000001 
-2.339672 80.488586 1.984936 -5.792710 -43.618753 1.511830 0.000000 0.000000 0.000000 -37.207247 3.687987 18.474017 60.088856 -8.709231 4.555424 -20.073540 -7.272020 -18.375482 0.000000 0.000000 -0.000000 -0.000002 -0.000000 -0.000001 -20.444483 -9.318168 -34.828641 64.205424 -6.618067 -6.931013 -31.772059 -11.213938 27.413321 0.000000 0.000001 0.000000 -0.000004 0.000000 -0.000000 9.228812 7.781410 -2.498347 3.378359 1.706299 -1.808421 3.396730 1.699519 -1.781835 2.711844 2.641053 -0.902315 2.711837 2.641055 -0.902313 0.000001 -0.000000 0.000000 2.711842 2.641058 -0.902315 2.711918 2.641060 -0.902319 -0.000001 0.000001 0.000000 0.000001 -0.000000 0.000000 1.109186 2.777521 -8.447108 -53.095859 -1.358330 -59.284799 -0.013880 -101.208903 -0.013719 0.969474 -8.082883 -12.448827 -6.141211 -11.690797 -6.761690 9.914106 42.595515 3.409869 -0.000001 0.000002 -0.000001 0.255313 3.378224 -45.814358 5.654094 5.847762 -88.067455 0.000001 -0.000002 0.000000 -0.461474 3.841584 -39.722666 6.450742 5.820339 -95.892864 0.000000 -0.000002 -0.000001 0.469726 4.966812 -39.799437 8.181050 5.368600 -113.503011 -0.000001 -0.000002 -0.000000 -3.762430 9.063711 -45.253808 5.342514 5.828978 -85.005317 0.000001 -0.000003 0.000002 -0.000000 0.000002 -0.000001 -0.000000 0.000002 -0.000001 -0.000000 0.000002 -0.000001 -0.000002 0.000000 -0.000001 -0.000002 -0.000001 -0.000001 -0.000002 0.000000 -0.000001 -0.000002 -0.000001 -0.000001 3.855898 14.541220 -4.667879 -46.345658 20.573303 72.769594 -0.000095 111.274368 0.000082 -13.375537 14.921212 15.153210 -7.341096 13.749664 7.412328 9.855734 -44.489103 -3.903300 0.000001 0.000002 0.000003 -0.124374 -2.384787 45.108861 4.500584 -4.654547 88.071164 -0.000000 0.000001 -0.000001 -0.761616 -2.932897 39.031061 5.133869 -4.632742 95.881629 -0.000002 0.000000 -0.000001 0.154761 -4.068802 39.122671 6.509718 -4.273577 113.462843 0.000000 -0.000004 -0.000002 -4.198872 -8.025525 44.637772 4.252888 -4.639616 85.014818 -0.000001 0.000002 -0.000000 -0.000000 0.000000 0.000001 0.000000 -0.000003 -0.000003 -0.000000 0.000000 0.000000 0.000000 -0.000001 0.000001 0.000000 0.000000 0.000001 0.000000 -0.000001 0.000001 0.000000 -0.000000 0.000001 -0.000000 0.000001 -0.000000 -0.000000 0.000001 -0.000000 -0.000000 0.000001 -0.000000 -0.000000 0.000001 -0.000000 -0.000000 0.000001 -0.000000 -0.000000 0.000001 -0.000000 -0.000000 0.000001 -0.000000 -0.000000 0.000001 -0.000000 0.000000 0.000000 0.000000 
-1.067455 79.846054 0.547812 -6.263192 -39.129519 5.423223 -0.000000 0.000002 -0.000000 -39.000650 4.139246 12.674406 56.656505 -9.322982 4.394221 -14.614590 -8.463526 -17.804309 -0.000000 0.000000 -0.000000 0.000001 -0.000003 0.000003 -21.567048 -8.514390 -39.635547 69.366985 -5.286886 -6.737976 -33.959605 -15.245942 27.261317 -0.000000 0.000000 0.000000 0.000002 0.000001 -0.000000 9.924804 7.888454 -1.076445 5.282126 2.113050 -1.924489 5.306264 2.088078 -1.888187 2.468288 1.694147 -1.898387 2.468281 1.694143 -1.898387 0.000001 -0.000000 0.000000 2.468290 1.694133 -1.898384 2.468283 1.694156 -1.898390 0.000000 0.000001 -0.000000 0.000001 -0.000000 0.000000 0.642263 0.093533 -6.871562 -52.262828 -9.027034 -67.579203 -0.000551 -92.463659 -0.000596 4.284298 -5.596359 -8.733263 -6.141209 -11.690799 -6.761693 9.914104 42.595512 3.409875 0.000004 -0.000005 -0.000005 0.255314 3.378222 -45.814358 5.654091 5.847762 -88.067455 -0.000000 -0.000002 0.000000 -0.461469 3.841583 -39.722673 6.450741 5.820340 -95.892864 -0.000001 -0.000001 -0.000000 0.469726 4.966814 -39.799441 8.181051 5.368600 -113.503011 -0.000001 0.000005 0.000001 -3.762428 9.063710 -45.253814 5.342519 5.828979 -85.005311 -0.000000 -0.000002 -0.000001 -0.000000 0.000004 -0.000001 -0.000000 0.000004 -0.000001 -0.000000 0.000005 -0.000001 0.000001 0.000001 -0.000001 0.000001 0.000000 0.000000 0.000001 0.000001 -0.000001 0.000001 0.000000 -0.000000 4.740997 16.140201 -3.811485 -48.197373 18.085243 64.763642 0.000109 113.320980 -0.000107 -16.906885 11.039702 21.106688 -7.341099 13.749662 7.412325 9.855728 -44.489103 -3.903298 0.000001 0.000000 -0.000000 -0.124372 -2.384789 45.108864 4.500587 -4.654549 88.071164 -0.000000 -0.000002 0.000000 -0.761617 -2.932898 39.031058 5.133874 -4.632741 95.881629 0.000001 0.000002 -0.000001 0.154764 -4.068800 39.122671 6.509715 -4.273577 113.462843 -0.000001 0.000002 0.000000 -4.198868 -8.025524 44.637769 4.252896 -4.639612 85.014818 0.000001 0.000002 -0.000000 -0.000000 -0.000000 -0.000003 0.000000 -0.000003 -0.000000 -0.000000 -0.000001 -0.000002 -0.000001 0.000001 -0.000001 -0.000001 0.000002 -0.000001 -0.000001 0.000001 -0.000001 -0.000001 0.000002 -0.000001 0.000001 -0.000002 0.000001 0.000001 -0.000002 0.000001 0.000001 -0.000002 0.000001 0.000001 -0.000002 0.000001 0.000001 -0.000002 0.000001 0.000001 -0.000002 0.000001 0.000001 -0.000002 0.000001 0.000000 -0.000001 -0.000000 -0.000000 0.000002 -0.000000 
0.933202 78.376015 -1.618832 -6.155284 -36.569902 9.788239 -0.000000 -0.000001 -0.000000 -42.039425 5.458528 8.969070 53.927390 -7.789645 2.275558 -9.060223 -11.930355 -16.932970 0.000000 -0.000002 -0.000000 0.000000 0.000001 0.000002 -24.798926 -3.357645 -43.139051 77.561982 -1.378286 -7.034760 -36.255778 -22.193431 25.506329 0.000000 0.000001 0.000000 -0.000001 -0.000000 0.000000 11.692958 7.116433 2.990858 7.708275 2.079940 -0.900686 7.734599 2.025558 -0.859750 1.701260 0.911124 -2.456339 1.701271 0.911119 -2.456335 0.000000 0.000000 -0.000000 1.701340 0.911114 -2.456346 1.701179 0.911149 -2.456344 -0.000000 0.000001 -0.000001 0.000000 0.000000 -0.000000 -0.021849 -3.838701 -3.863714 -46.816770 -14.400452 -70.815190 -0.000165 -85.156504 -0.000202 8.202571 -0.903654 -8.096032 -6.141215 -11.690798 -6.761690 9.914101 42.595519 3.409880 0.000004 -0.000003 -0.000003 0.255313 3.378225 -45.814361 5.654090 5.847763 -88.067455 0.000001 0.000001 0.000000 -0.461472 3.841585 -39.722669 6.450744 5.820344 -95.892864 -0.000001 0.000002 0.000000 0.469728 4.966812 -39.799444 8.181049 5.368605 -113.503011 0.000001 0.000001 0.000005 -3.762432 9.063713 -45.253814 5.342517 5.828976 -85.005317 0.000002 -0.000005 -0.000002 -0.000002 0.000003 -0.000002 -0.000002 0.000003 -0.000002 -0.000003 0.000003 -0.000002 -0.000000 -0.000001 0.000002 0.000000 -0.000002 0.000000 -0.000000 -0.000001 0.000002 -0.000000 0.000000 -0.000000 5.662862 17.837770 -2.945179 -54.755195 23.150629 59.203895 0.000083 109.937051 -0.000096 -17.555905 6.191018 26.189233 -7.341100 13.749664 7.412326 9.855728 -44.489096 -3.903291 -0.000000 -0.000001 -0.000000 -0.124374 -2.384790 45.108864 4.500588 -4.654548 88.071164 0.000000 0.000001 0.000000 -0.761618 -2.932896 39.031058 5.133873 -4.632743 95.881629 0.000001 -0.000002 -0.000001 0.154761 -4.068802 39.122675 6.509719 -4.273576 113.462843 0.000000 -0.000003 0.000001 -4.198869 -8.025527 44.637772 4.252896 -4.639613 85.014818 0.000001 -0.000000 -0.000000 -0.000001 0.000001 -0.000002 0.000000 -0.000001 -0.000000 -0.000001 0.000001 -0.000001 0.000002 0.000002 0.000001 0.000002 0.000003 0.000003 0.000002 0.000002 0.000001 0.000002 0.000003 0.000003 0.000001 -0.000001 0.000002 0.000001 -0.000001 0.000002 0.000001 -0.000001 0.000002 0.000001 -0.000001 0.000002 0.000001 -0.000001 0.000002 0.000001 -0.000001 0.000002 0.000001 -0.000001 0.000002 0.000001 0.000001 -0.000000 -0.000000 -0.000001 -0.000000 
